<?xml version="1.0" encoding="utf-8"?>
<!-- Generator: Adobe Illustrator 23.0.1, SVG Export Plug-In . SVG Version: 6.00 Build 0)  -->
<svg version="1.1" id="Layer_1" xmlns="http://www.w3.org/2000/svg" xmlns:xlink="http://www.w3.org/1999/xlink" x="0px" y="0px"
	 viewBox="0 0 400 400" style="enable-background:new 0 0 400 400;" xml:space="preserve">
<style type="text/css">
	.st0{fill:#F04C5A;}
</style>
<g id="flechas">
</g>
<g id="diana">
	<g>
		<g>
			<path class="st0" d="M318.6,354.6c-1.4,1.4-2.9,2.7-4.5,3.9c-41.6,31.1-93.6,45.5-146.7,40.5c-37.4-3.5-72.8-16.4-102.5-37.4
				c-1.4-1-2.9-2.1-4.3-3.1c-3.2-2.4-3.7-6.8-1.2-9.8s7.2-3.5,10.4-1.1c1.3,1,2.6,2,4,2.9c27.5,19.5,60.3,31.5,95,34.7
				c50.2,4.7,99.3-9.3,138.2-39.3l2.2-1.9c1.6-1.3,3.7-2.1,5.9-1.9c1.6,0.1,3.3,0.7,4.7,2.4c0,0,0.1,0.1,0.1,0.1
				c2.2,2.7,1.9,6.5-0.5,9.1L318.6,354.6z"/>
			<path class="st0" d="M306.5,337.4l23.2-7.1c0,0-3,24.6-3.4,26.9c-0.4,2.2,0.7,3.8,0.7,3.8s2.1,3.2,5.7,2.7s4.7-3.2,4.7-3.2
				c0.1-1,0.7-4.7,0.7-4.7s4.1-31.6,4-32.1c0-0.4,0-0.8-0.5-2.5c-0.6-1.8-1.8-2.5-2.4-3c-0.7-0.5-0.8-0.5-2.5-1.2s-4.3,0.1-4.3,0.1
				s-31.4,11-31.9,11.2c0,0-2.9,1.7-2.5,5c0.2,1.9,1.5,3.2,2.5,4c0.8,0.6,1.7,0.9,2.7,0.9C304.1,338.1,305.5,338,306.5,337.4z"/>
		</g>
		<g>
			<path class="st0" d="M184.8,355.2L184.8,355.2c-43.4,0-84.2-16.9-114.8-47.6C39.3,277,22.4,236.2,22.4,192.8S39.3,108.6,70,77.9
				c30.7-30.7,71.5-47.6,114.8-47.6c30,0,59.2,8.2,84.4,23.6c1.2,0.7,2.5,1.5,3.6,2.3c2.7,1.8,3.5,5.4,1.8,8.2
				c-1.8,2.7-5.4,3.5-8.2,1.8c-1.1-0.7-2.2-1.4-3.4-2.1c-23.4-14.3-50.5-21.9-78.3-21.9c-40.2,0-78,15.7-106.5,44.1
				s-44.1,66.3-44.1,106.5s15.7,78,44.1,106.5s66.2,44.1,106.5,44.1s78-15.7,106.5-44.1s44.1-66.2,44.1-106.5
				c0-27.8-7.6-54.9-21.9-78.3c-0.7-1.1-1.4-2.3-2.1-3.4c-1.8-2.7-1-6.4,1.8-8.2c2.7-1.8,6.4-1,8.2,1.8c0.8,1.2,1.5,2.4,2.3,3.7
				c15.4,25.3,23.6,54.5,23.6,84.4c0,43.4-16.9,84.2-47.6,114.8C269,338.3,228.2,355.2,184.8,355.2z"/>
		</g>
		<g>
			<path class="st0" d="M184.8,305.3L184.8,305.3c-30.1,0-58.3-11.7-79.6-33c-21.2-21.3-32.9-49.5-32.9-79.6
				c0-30.1,11.7-58.3,32.9-79.6s49.5-32.9,79.6-32.9c18,0,35.2,4.1,51.1,12.2c2.9,1.5,4.1,5.1,2.6,8c-1.5,2.9-5.1,4.1-8,2.6
				c-14.2-7.2-29.6-10.9-45.7-10.9c-26.9,0-52.2,10.5-71.2,29.5c-19,19-29.5,44.3-29.5,71.2S94.6,245,113.6,264
				c19,19,44.3,29.5,71.2,29.5S237,283,256,264c19-19,29.5-44.3,29.5-71.2c0-16.1-3.7-31.5-10.9-45.7c-1.5-2.9-0.3-6.5,2.6-8
				c2.9-1.5,6.5-0.3,8,2.6c8.1,15.9,12.2,33,12.2,51.1c0,30.1-11.7,58.3-33,79.6C243.1,293.6,214.9,305.3,184.8,305.3z"/>
		</g>
		<g>
			<path class="st0" d="M184.8,255.4c-16,0-32.1-6.1-44.3-18.3c-24.4-24.4-24.4-64.1,0-88.6c14.2-14.2,34.6-20.8,54.5-17.5
				c3.2,0.5,5.4,3.6,4.9,6.8c-0.5,3.2-3.6,5.4-6.8,4.9c-16.1-2.7-32.7,2.6-44.2,14.2c-19.8,19.8-19.8,52,0,71.8s52,19.8,71.8,0
				c11.6-11.6,16.9-28.1,14.2-44.2c-0.5-3.2,1.6-6.3,4.9-6.8c3.2-0.5,6.3,1.6,6.8,4.9c3.3,19.9-3.3,40.3-17.5,54.5
				C216.9,249.3,200.8,255.4,184.8,255.4z"/>
		</g>
		<path class="st0" d="M377.2,49c-0.9-2.8-3.2-4.8-6-5.3l-31.8-5.6l-5.6-31.8c-0.5-2.8-2.5-5.2-5.3-6s-5.7-0.1-7.8,1.9l-34.1,34.1
			c-2.6,2.6-3.8,6.4-3.1,10l5.9,33.4L180.6,188.6c-2.3,2.3-2.3,6.1,0,8.4c1.2,1.2,2.7,1.7,4.2,1.7s3-0.6,4.2-1.7L297.8,88.1
			l33.4,5.9c0.7,0.1,1.3,0.2,2,0.2c3,0,5.9-1.2,8-3.3l34.1-34.1C377.4,54.8,378.1,51.8,377.2,49z M333.1,82.3l-32.1-5.7l-5.7-32.2
			l28.3-28.3l4.7,26.8c0.6,3.2,3.1,5.7,6.3,6.3l26.8,4.7L333.1,82.3z"/>
	</g>
</g>
<g id="reloj">
</g>
<g id="masters">
</g>
</svg>
