<?xml version="1.0" encoding="utf-8"?>
<!-- Generator: Adobe Illustrator 23.0.1, SVG Export Plug-In . SVG Version: 6.00 Build 0)  -->
<svg version="1.1" id="Layer_1" xmlns="http://www.w3.org/2000/svg" xmlns:xlink="http://www.w3.org/1999/xlink" x="0px" y="0px"
	 viewBox="0 0 400 400" style="enable-background:new 0 0 400 400;" xml:space="preserve">
<style type="text/css">
	.st0{fill:#F04C5A;}
</style>
<g id="flechas">
	<g>
		<path class="st0" d="M262.8,88.2L209.7,9.9c-2.4-3.5-5.6-5.3-8.7-5.3s-6.3,1.8-8.7,5.3l-53.1,78.3c-4.8,7.1-1.7,12.9,6.8,12.9
			h24.3v68.3c3.4,1.7,6.7,3.6,9.9,5.6v-73.8v-9.9h-9.9h-21.2l51.4-75.8c0.2-0.3,0.4-0.5,0.6-0.7c0.2,0.2,0.4,0.4,0.6,0.7l51.4,75.8
			h-21.2h-9.9v9.9v73.8c3.2-2,6.5-3.8,9.9-5.6V101H256C264.5,101,267.6,95.2,262.8,88.2z"/>
		<path class="st0" d="M94.6,177.6h9.9h4.4c29.5,0,56.4,11.4,76.6,30c2-2.6,4.1-5.1,6.3-7.6c-21.9-20-51-32.3-82.9-32.3h-4.4v-24.4
			c0-5.8-2.7-9.1-6.6-9.1c-1.9,0-4,0.7-6.3,2.3l-78.3,53.1c-7.1,4.8-7.1,12.6,0,17.4l78.3,53.1c2.3,1.5,4.4,2.3,6.3,2.3
			c3.9,0,6.6-3.3,6.6-9.1v-24.2h4.4c22,0,41.3,11.6,52.2,29.1c1-4.1,2.2-8.1,3.6-12c-13.1-16.4-33.2-26.9-55.7-26.9h-4.4h-9.9v9.9
			v21.1l-75.8-51.4c-0.3-0.2-0.5-0.4-0.7-0.6c0.2-0.2,0.4-0.4,0.7-0.6l75.8-51.4v21.3C94.6,167.8,94.6,177.6,94.6,177.6z"/>
		<path class="st0" d="M388.7,189.7l-78.3-53.1c-2.3-1.5-4.4-2.3-6.3-2.3c-3.9,0-6.6,3.3-6.6,9.1v24.4h-4.4
			c-67.8,0-122.9,55.1-122.9,122.9v90.9h9.9v-90.9c0-62.3,50.7-113,113-113h4.4h5.5h4.4v-9.9v-21.3l75.8,51.4
			c0.3,0.2,0.5,0.4,0.7,0.6c-0.2,0.2-0.4,0.4-0.7,0.6l-75.8,51.4v-21.1v-9.9h-9.9h-4.4c-39.3,0-71.3,32-71.3,71.3v90.9h9.9v-90.9
			c0-33.9,27.6-61.4,61.4-61.4h4.4v24.2c0,5.8,2.7,9.1,6.6,9.1c1.9,0,4-0.7,6.3-2.3l78.3-53.1C395.8,202.3,395.8,194.5,388.7,189.7z
			"/>
	</g>
</g>
<g id="diana">
</g>
<g id="reloj">
</g>
<g id="masters">
</g>
</svg>
