<?xml version="1.0" encoding="utf-8"?>
<!-- Generator: Adobe Illustrator 23.0.1, SVG Export Plug-In . SVG Version: 6.00 Build 0)  -->
<svg version="1.1" id="Layer_1" xmlns="http://www.w3.org/2000/svg" xmlns:xlink="http://www.w3.org/1999/xlink" x="0px" y="0px"
	 viewBox="0 0 400 400" style="enable-background:new 0 0 400 400;" xml:space="preserve">
<style type="text/css">
	.st0{fill:#F04C5A;}
</style>
<g id="flechas">
</g>
<g id="diana">
</g>
<g id="reloj">
	<g>
		<path class="st0" d="M364.1,99c0.1-1.9-2.1-3.8-2.1-3.8l-16.2-16.2l-5-5l-1.4-1.4c-1.2-1-2.4-1.2-2.4-1.2c-0.1,0-0.1,0-0.2-0.1
			c-2.4-0.5-4.4,1.3-4.4,1.3l-15.1,15.1l-8.8,8.8l-7.7,7.7l-6.4,6.3c0,0-9.9-8.4-30.6-18.5c-20.7-10-43.7-12.9-43.7-12.9l-0.1-30.5
			l14.1,0c11.1,0.4,11.6-3.8,14-6.2s1.6-12.6,1.6-12.6s0-16.8,0-17.6c0-0.9-0.2-1.9-0.3-2.5c-0.1-0.5-0.6-1.9-0.6-1.9
			c-0.5-1.2-1.3-2.8-2.5-4c-1.2-1.2-2.6-2.4-4.8-3.2c-2.2-0.8-4.5-0.8-4.5-0.8h-79.7c-2.4,0-3.7,0.2-3.7,0.2s-0.7,0.1-2.6,0.7
			s-4.3,2.4-6,5.2c-1.7,2.8-1.7,6.1-1.7,6.1l0,14.8c0,0,0,6.3,0,9s0.2,3,0.2,3c0.6,2.9,2.9,5.7,2.9,5.7s2.7,2.8,5.6,3.5
			c2.8,0.7,5.6,0.6,5.6,0.6h15.2h0.1v30.4c0,0-39.1,6.6-68.7,27.3c0,0-44.5,28.3-62.1,84.8c0,0-12.4,30.8-4.7,73.9
			c0,0,5.5,42.9,33,74.3c0,0,37.4,51.3,104.8,59.2c0,0,46.7,8.5,99.1-18.8c6.7-3.5,22.5-14.6,22.5-14.6
			c45.8-38.1,63.4-87.2,60.2-139c-3.2-51.8-32.3-85.3-32.3-85.3l37.8-37.8C363.9,101.5,364,100.8,364.1,99z M156.2,38.1
			c-1.2,0-1.5-0.3-1.8-0.6c-0.3-0.3-0.4-1.4-0.4-1.4V12.7c0,0-0.1-0.9,0.5-1.6c0.6-0.6,2.4-0.5,2.4-0.5l40.8,0h19.1h20.9
			c0,0,0.8,0.2,0.9,0.5c0.2,0.3,0.5,0.4,0.6,1V36v0.5c0,0,0,0.6-0.3,0.9c-0.3,0.4-0.5,0.6-1.2,0.7C237.5,38.1,157.5,38.1,156.2,38.1
			z M209.4,48.6v29.6c-15.1-0.7-25.9,0-25.9,0V48.6H209.4z M346.7,238.6c0,83.1-67.7,150.5-151.1,150.5S44.5,321.7,44.5,238.6
			S112.1,88.1,195.6,88.1S346.7,155.5,346.7,238.6z M318,132.8l-15.4-15.4l6.6-6.6l16.7-16.7L336,84.1l15.4,15.4L318,132.8z"/>
		<path class="st0" d="M196.4,109.4c-71.5,0-129.5,57.8-129.5,129.1s58,129.1,129.5,129.1s129.5-57.8,129.5-129.1
			C325.9,167.2,267.9,109.4,196.4,109.4z M196.6,357.6c-65.5,0-118.7-53.1-118.7-118.7s53.1-118.7,118.7-118.7
			S315.3,173.4,315.3,239c0,22.3-6.2,43.2-16.9,61C277.6,334.5,239.8,357.6,196.6,357.6z"/>
		<path class="st0" d="M233.5,280.5c-5.2,5.8-14.5,8.7-14.5,8.7c-8.7,2.9-17.1,2.6-17.1,2.6v3.6c0,0,0,12.6,0,16.4
			c0,3.9-0.5,4.2-1,5.1s-3,3.5-6.5,1.7c-3.5-1.8-3.1-5.2-3.1-5.2v-6.1l-0.1-16.2l-3.9-0.6c-5.7-0.7-22.1-6.1-22.1-6.1
			s-4.3-1.2-6.3-3.1s-1.1-4.6-1.1-4.6s0.4-2.3,2.9-3.5s5.2,0.3,5.2,0.3l15.1,4.8c19.7,5.5,31.1,2,31.1,2c22.7-6,17.4-20.6,17.4-20.6
			c-5-14.2-26.6-15.1-29.1-15.2s-9.2-0.3-9.2-0.3c-11.7-0.4-21.9-5-21.9-5s-15-6.8-16.9-20s6.5-20.8,6.5-20.8
			c12.6-13.1,32.2-12.2,32.2-12.2v-13.4v-7.5v-1.5c0.3-2.5,2.8-5.8,6.7-4.7s3.8,4.8,3.8,4.8v6.8v15.9c0,0,14.2,2.9,18.5,4.4
			l10.2,3.3c0,0,1.9,0.6,2.4,0.9c0.5,0.2,1.4,0.9,1.9,1.6c0,0,1.6,1.9,1.1,4.1s-1.9,3.3-1.9,3.3s-1.6,1.4-3.9,1.1c0,0-0.6,0-2.7-0.8
			c-2.1-0.8-7.2-2.4-7.2-2.4s-10.3-3.3-14.5-4c0,0-10-2.8-23.3-0.6c0,0-9,1.9-14.5,6.9c-5.5,5.1-5.1,11.4-5.1,11.4s0.6,9.2,12.2,14
			s23.5,3.8,23.5,3.8s7.3,0.4,9.8,0.7c0,0,15,2.1,22.9,9.3s8.9,13.4,8.9,13.4s1.5,4.1,0.7,8.1c-0.7,4-0.6,7.8-6.1,14.1L233.5,280.5z
			"/>
	</g>
</g>
<g id="masters">
</g>
</svg>
